HIERARCHY
ROOT Hips
{
    OFFSET 0.000000 0.000000 0.000000
    CHANNELS 6 Xposition Yposition Zposition Zrotation Xrotation Yrotation
    JOINT Spine
    {
        OFFSET -0.000000 0.076824 0.000000
        CHANNELS 3 Zrotation Xrotation Yrotation
        JOINT Spine1
        {
            OFFSET -0.000000 0.205639 0.000000
            CHANNELS 3 Zrotation Xrotation Yrotation
            JOINT Neck
            {
                OFFSET -0.000000 0.204794 0.018618
                CHANNELS 3 Zrotation Xrotation Yrotation
                JOINT Head
                {
                    OFFSET -0.000000 0.131164 -0.018738
                    CHANNELS 3 Zrotation Xrotation Yrotation
                    End Site
                    {
                        OFFSET -0.000000 0.187377 0.000000
                    }
                }
            }
            JOINT LeftShoulder
            {
                OFFSET 0.037892 0.189814 -0.002396
                CHANNELS 3 Zrotation Xrotation Yrotation
                JOINT LeftArm
                {
                    OFFSET 0.104721 0.000000 0.000000
                    CHANNELS 3 Zrotation Xrotation Yrotation
                    JOINT LeftForeArm
                    {
                        OFFSET 0.316555 0.000000 0.000000
                        CHANNELS 3 Zrotation Xrotation Yrotation
                        JOINT LeftHand
                        {
                            OFFSET 0.270628 0.000000 0.000000
                            CHANNELS 3 Zrotation Xrotation Yrotation
                            JOINT LeftHandThumb1
                            {
                                OFFSET 0.023422 -0.014053 0.046844
                                CHANNELS 3 Zrotation Xrotation Yrotation
                                JOINT LeftHandThumb2
                                {
                                    OFFSET 0.028107 0.000000 0.000000
                                    CHANNELS 3 Zrotation Xrotation Yrotation
                                    JOINT LeftHandThumb3
                                    {
                                        OFFSET 0.028107 0.000000 0.000000
                                        CHANNELS 3 Zrotation Xrotation Yrotation
                                        End Site
                                        {
                                            OFFSET 0.026333 0.000000 0.000000
                                        }
                                    }
                                }
                            }
                            JOINT LeftHandIndex1
                            {
                                OFFSET 0.084320 0.000000 0.032791
                                CHANNELS 3 Zrotation Xrotation Yrotation
                                JOINT LeftHandIndex2
                                {
                                    OFFSET 0.046844 0.000000 0.000000
                                    CHANNELS 3 Zrotation Xrotation Yrotation
                                    JOINT LeftHandIndex3
                                    {
                                        OFFSET 0.023422 0.000000 0.000000
                                        CHANNELS 3 Zrotation Xrotation Yrotation
                                        End Site
                                        {
                                            OFFSET 0.021944 0.000000 0.000000
                                        }
                                    }
                                }
                            }
                            JOINT LeftHandMiddle1
                            {
                                OFFSET 0.084320 0.000000 0.010868
                                CHANNELS 3 Zrotation Xrotation Yrotation
                                JOINT LeftHandMiddle2
                                {
                                    OFFSET 0.051529 0.000000 0.000000
                                    CHANNELS 3 Zrotation Xrotation Yrotation
                                    JOINT LeftHandMiddle3
                                    {
                                        OFFSET 0.028107 0.000000 0.000000
                                        CHANNELS 3 Zrotation Xrotation Yrotation
                                        End Site
                                        {
                                            OFFSET 0.026333 0.000000 0.000000
                                        }
                                    }
                                }
                            }
                            JOINT LeftHandRing1
                            {
                                OFFSET 0.079635 0.000000 -0.010868
                                CHANNELS 3 Zrotation Xrotation Yrotation
                                JOINT LeftHandRing2
                                {
                                    OFFSET 0.046844 0.000000 0.000000
                                    CHANNELS 3 Zrotation Xrotation Yrotation
                                    JOINT LeftHandRing3
                                    {
                                        OFFSET 0.023422 0.000000 0.000000
                                        CHANNELS 3 Zrotation Xrotation Yrotation
                                        End Site
                                        {
                                            OFFSET 0.021944 0.000000 0.000000
                                        }
                                    }
                                }
                            }
                            JOINT LeftHandPinky1
                            {
                                OFFSET 0.074951 0.000000 -0.032791
                                CHANNELS 3 Zrotation Xrotation Yrotation
                                JOINT LeftHandPinky2
                                {
                                    OFFSET 0.037475 0.000000 0.000000
                                    CHANNELS 3 Zrotation Xrotation Yrotation
                                    JOINT LeftHandPinky3
                                    {
                                        OFFSET 0.018738 0.000000 0.000000
                                        CHANNELS 3 Zrotation Xrotation Yrotation
                                        End Site
                                        {
                                            OFFSET 0.017555 0.000000 0.000000
                                        }
                                    }
                                }
                            }
                        }
                    }
                }
            }
            JOINT RightShoulder
            {
                OFFSET -0.036963 0.189814 -0.002396
                CHANNELS 3 Zrotation Xrotation Yrotation
                JOINT RightArm
                {
                    OFFSET -0.104721 0.000000 0.000000
                    CHANNELS 3 Zrotation Xrotation Yrotation
                    JOINT RightForeArm
                    {
                        OFFSET -0.316555 0.000000 0.000000
                        CHANNELS 3 Zrotation Xrotation Yrotation
                        JOINT RightHand
                        {
                            OFFSET -0.270628 0.000000 0.000000
                            CHANNELS 3 Zrotation Xrotation Yrotation
                            JOINT RightHandThumb1
                            {
                                OFFSET -0.023422 -0.014053 0.046844
                                CHANNELS 3 Zrotation Xrotation Yrotation
                                JOINT RightHandThumb2
                                {
                                    OFFSET -0.028107 0.000000 0.000000
                                    CHANNELS 3 Zrotation Xrotation Yrotation
                                    JOINT RightHandThumb3
                                    {
                                        OFFSET -0.028107 0.000000 0.000000
                                        CHANNELS 3 Zrotation Xrotation Yrotation
                                        End Site
                                        {
                                            OFFSET -0.026333 0.000000 0.000000
                                        }
                                    }
                                }
                            }
                            JOINT RightHandIndex1
                            {
                                OFFSET -0.084320 0.000000 0.032791
                                CHANNELS 3 Zrotation Xrotation Yrotation
                                JOINT RightHandIndex2
                                {
                                    OFFSET -0.046844 0.000000 0.000000
                                    CHANNELS 3 Zrotation Xrotation Yrotation
                                    JOINT RightHandIndex3
                                    {
                                        OFFSET -0.023422 0.000000 0.000000
                                        CHANNELS 3 Zrotation Xrotation Yrotation
                                        End Site
                                        {
                                            OFFSET -0.021944 0.000000 0.000000
                                        }
                                    }
                                }
                            }
                            JOINT RightHandMiddle1
                            {
                                OFFSET -0.084320 0.000000 0.010868
                                CHANNELS 3 Zrotation Xrotation Yrotation
                                JOINT RightHandMiddle2
                                {
                                    OFFSET -0.051529 0.000000 0.000000
                                    CHANNELS 3 Zrotation Xrotation Yrotation
                                    JOINT RightHandMiddle3
                                    {
                                        OFFSET -0.028107 0.000000 0.000000
                                        CHANNELS 3 Zrotation Xrotation Yrotation
                                        End Site
                                        {
                                            OFFSET -0.026333 0.000000 0.000000
                                        }
                                    }
                                }
                            }
                            JOINT RightHandRing1
                            {
                                OFFSET -0.079635 0.000000 -0.010868
                                CHANNELS 3 Zrotation Xrotation Yrotation
                                JOINT RightHandRing2
                                {
                                    OFFSET -0.046844 0.000000 0.000000
                                    CHANNELS 3 Zrotation Xrotation Yrotation
                                    JOINT RightHandRing3
                                    {
                                        OFFSET -0.023422 0.000000 0.000000
                                        CHANNELS 3 Zrotation Xrotation Yrotation
                                        End Site
                                        {
                                            OFFSET -0.021944 0.000000 0.000000
                                        }
                                    }
                                }
                            }
                            JOINT RightHandPinky1
                            {
                                OFFSET -0.074951 0.000000 -0.032791
                                CHANNELS 3 Zrotation Xrotation Yrotation
                                JOINT RightHandPinky2
                                {
                                    OFFSET -0.037475 0.000000 0.000000
                                    CHANNELS 3 Zrotation Xrotation Yrotation
                                    JOINT RightHandPinky3
                                    {
                                        OFFSET -0.018738 0.000000 0.000000
                                        CHANNELS 3 Zrotation Xrotation Yrotation
                                        End Site
                                        {
                                            OFFSET -0.017555 0.000000 0.000000
                                        }
                                    }
                                }
                            }
                        }
                    }
                }
            }
        }
    }
    JOINT LeftUpLeg
    {
        OFFSET 0.093688 0.000000 0.000000
        CHANNELS 3 Zrotation Xrotation Yrotation
        JOINT LeftLeg
        {
            OFFSET -0.000000 -0.377687 0.000000
            CHANNELS 3 Zrotation Xrotation Yrotation
            JOINT LeftFoot
            {
                OFFSET -0.000000 -0.399231 0.000000
                CHANNELS 3 Zrotation Xrotation Yrotation
                JOINT LeftToeBase
                {
                    OFFSET -0.000000 -0.060897 0.140533
                    CHANNELS 3 Zrotation Xrotation Yrotation
                    End Site
                    {
                        OFFSET -0.000000 0.000000 0.037475
                    }
                }
            }
        }
    }
    JOINT RightUpLeg
    {
        OFFSET -0.093688 0.000000 0.000000
        CHANNELS 3 Zrotation Xrotation Yrotation
        JOINT RightLeg
        {
            OFFSET -0.000000 -0.377687 0.000000
            CHANNELS 3 Zrotation Xrotation Yrotation
            JOINT RightFoot
            {
                OFFSET -0.000000 -0.399231 0.000000
                CHANNELS 3 Zrotation Xrotation Yrotation
                JOINT RightToeBase
                {
                    OFFSET -0.000000 -0.060897 0.140533
                    CHANNELS 3 Zrotation Xrotation Yrotation
                    End Site
                    {
                        OFFSET -0.000000 0.000000 0.037475
                    }
                }
            }
        }
    }
}
MOTION
Frames:    4
Frame Time:    0.040000
-1.509166    0.871324    0.650498    1.069045    3.364332    4.587650    -4.386333    -15.504489    -1.762456    3.071856    6.572938    -0.547631    4.980926    24.658033    22.058931    -12.683266    -4.536851    21.169205    22.230795    -3.603404    -1.486055    -16.855406    2.346094    -12.313690    -7.421872    19.475523    5.204392    13.455644    -5.836809    -18.991316    0.000000    0.000000    0.000000    0.000000    0.000000    0.000000    0.000000    0.000000    0.000000    -0.039565    0.000000    0.000000    -0.079129    0.000000    0.000000    -0.039565    0.000000    0.000000    -0.441651    -0.031033    2.088392    -0.885164    0.000000    0.000000    -0.442580    0.000000    0.000000    -0.842340    -0.076697    4.176516    -1.691199    0.000000    0.000000    -0.845601    0.000000    0.000000    -1.253148    -0.138981    6.327531    -2.521660    0.000000    0.000000    -1.260830    0.000000    0.000000    -13.945678    -0.328886    -6.449739    20.275248    -2.468573    13.090665    3.948907    -0.289982    -4.152454    -13.363377    11.814432    -9.671762    28.973351    -4.620017    38.402081    0.000000    0.000000    0.000000    0.000000    0.000000    0.000000    0.000000    0.000000    0.000000    0.000000    0.000000    0.000000    0.000000    0.000000    0.000000    0.126754    0.000000    -0.000000    0.253508    0.000000    -0.000000    0.126754    0.000000    -0.000000    0.253509    0.000000    -0.000000    0.507018    0.000000    -0.000000    0.253509    0.000000    -0.000000    0.384104    0.000000    -0.000000    0.768209    0.000000    -0.000000    0.384104    0.000000    -0.000000    5.799673    1.066774    1.751438    -3.342761    3.570805    4.018178    1.514107    -13.599477    1.445635    1.944346    7.177941    -4.348846    -10.731039    5.591522    3.980232    5.274977    0.064265    -8.574758    -0.420455    -5.263155    -9.484098    0.817438    0.657009    -3.255872    
-1.509366    0.871383    0.650220    1.033618    3.327679    4.530090    -4.414221    -15.466253    -1.757910    3.111018    6.546673    -0.547024    4.982844    24.639807    22.012447    -12.481439    -4.262336    21.183939    22.253933    -3.714378    -1.558771    -16.861782    2.331086    -12.210795    -7.482556    19.668362    5.238811    13.604309    -5.988542    -18.986404    0.000000    0.000000    0.000000    0.000000    0.000000    0.000000    0.000000    0.000000    0.000000    -0.306467    0.000000    0.000000    -0.612934    0.000000    0.000000    -0.306467    0.000000    0.000000    -0.641297    -0.036513    2.128379    -1.284583    0.000000    0.000000    -0.642291    0.000000    0.000000    -0.974540    -0.085434    4.256510    -1.956232    0.000000    0.000000    -0.978117    0.000000    0.000000    -1.315737    -0.148745    6.448800    -2.648234    0.000000    0.000000    -1.324117    0.000000    0.000000    -13.976754    -0.348368    -6.484361    20.243397    -2.294642    13.054669    3.850166    -0.413167    -4.184768    -13.595069    12.054842    -9.546287    28.614843    -5.488963    39.322079    0.000000    0.000000    0.000000    0.000000    0.000000    0.000000    0.000000    0.000000    0.000000    0.000000    0.000000    0.000000    0.000000    0.000000    0.000000    0.279725    0.000000    -0.000000    0.559451    0.000000    -0.000000    0.279725    0.000000    -0.000000    0.559452    0.000000    -0.000000    1.118902    0.000000    -0.000000    0.559452    0.000000    -0.000000    0.847653    0.000000    -0.000000    1.695306    0.000000    -0.000000    0.847653    0.000000    -0.000000    5.855084    1.095034    1.786685    -3.359220    3.564927    3.982390    1.519042    -13.564444    1.507377    1.939680    7.158476    -4.340154    -10.693396    5.628598    4.008792    5.285330    -0.012701    -8.327801    -0.468840    -5.212169    -9.696234    0.817748    0.675858    -3.256305    
-1.509520    0.871400    0.650064    1.028270    3.312994    4.500650    -4.478433    -15.462284    -1.782038    3.138212    6.473896    -0.551702    5.047948    24.691540    21.923378    -12.319384    -3.939599    21.160131    22.247322    -3.614880    -1.640973    -16.854084    2.301031    -12.200503    -7.439642    19.625578    5.279297    13.790120    -6.184110    -19.020702    0.000000    0.000000    0.000000    0.000000    0.000000    0.000000    0.000000    0.000000    0.000000    -0.296735    0.000000    0.000000    -0.593471    0.000000    0.000000    -0.296735    0.000000    0.000000    -0.648097    -0.037431    2.130652    -1.298251    0.000000    0.000000    -0.649124    0.000000    0.000000    -0.997824    -0.087898    4.261036    -2.003031    0.000000    0.000000    -1.001516    0.000000    0.000000    -1.355929    -0.153454    6.455618    -2.729167    0.000000    0.000000    -1.364584    0.000000    0.000000    -14.025886    -0.254613    -6.417461    20.272068    -2.382526    12.959014    3.766086    -0.185203    -4.149397    -13.280295    11.781490    -9.761395    28.811165    -5.240166    39.215252    0.000000    0.000000    0.000000    0.000000    0.000000    0.000000    0.000000    0.000000    0.000000    0.000000    0.000000    0.000000    0.000000    0.000000    0.000000    0.075287    0.000000    -0.000000    0.150573    0.000000    -0.000000    0.075287    0.000000    -0.000000    0.150573    0.000000    -0.000000    0.301147    0.000000    -0.000000    0.150573    0.000000    -0.000000    0.228141    0.000000    -0.000000    0.456282    0.000000    -0.000000    0.228141    0.000000    -0.000000    5.867597    1.098103    1.749615    -3.365972    3.576883    4.004091    1.548967    -13.460577    1.577990    1.929013    7.042324    -4.331482    -10.676902    5.635192    4.001416    5.274889    -0.037347    -8.517938    -0.453563    -5.188783    -9.462588    0.819678    0.665258    -3.264333    
-1.509669    0.871390    0.649893    1.010714    3.306532    4.468044    -4.528702    -15.522948    -1.777851    3.161179    6.542997    -0.550619    5.164948    24.579445    21.809092    -12.247478    -3.502912    21.102108    22.242237    -3.659925    -1.710474    -16.986233    2.687535    -12.620986    -6.934364    19.076439    4.588207    13.855710    -5.942634    -7.186794    7.981220    -28.982798    -18.353834    0.000000    0.000000    0.000000    0.000000    0.000000    0.000000    -1.378018    0.098638    -4.093435    -2.763087    0.000000    0.000000    -1.381543    0.000000    0.000000    1.174630    0.004957    -2.744542    -1.851268    0.000000    0.000000    -0.925637    0.000000    0.000000    3.728775    -0.028535    -1.392816    -0.939450    0.000000    0.000000    -0.469722    0.000000    0.000000    6.360388    0.000000    -0.000000    0.000000    0.000000    0.000000    0.000000    0.000000    0.000000    -14.062566    -0.297249    -6.485759    20.247200    -2.504107    12.949346    3.872120    -0.018442    -4.144702    -13.392727    11.733798    -9.734714    28.819042    -5.067234    38.929398    0.000000    0.000000    0.000000    0.000000    0.000000    0.000000    0.000000    0.000000    0.000000    0.000000    0.000000    0.000000    0.000000    0.000000    0.000000    0.013056    0.000000    -0.000000    0.026113    0.000000    -0.000000    0.013056    0.000000    -0.000000    0.026113    0.000000    -0.000000    0.052225    0.000000    -0.000000    0.026113    0.000000    -0.000000    0.039565    0.000000    -0.000000    0.079129    0.000000    -0.000000    0.039565    0.000000    -0.000000    5.900731    1.085588    1.768886    -3.363801    3.597417    4.004256    1.553937    -13.578355    1.553245    1.934296    7.133610    -4.330492    -10.649525    5.615340    4.023038    5.272129    -0.035739    -8.511110    -0.458120    -5.164456    -9.460870    0.817912    0.643838    -3.258291    
